<?xml version="1.0" encoding="UTF-8"?>
<svg id="Layer_2" data-name="Layer 2" xmlns="http://www.w3.org/2000/svg" viewBox="0 0 123.27 147.19">
  <defs>
    <style>
      .cls-1 {
        fill: #fafaf5;
      }
    </style>
  </defs>
  <g id="Layer_1-2" data-name="Layer 1">
    <g>
      <path class="cls-1" d="M37.8,51.48l.54-4.29-1.07-4.29-.54-.54h-10.19l-.54,.54-1.07,4.29,.54,4.29H15.55l2.14-4.29,8.04-29.76-.8-3.49h14.48l-.8,3.49,8.04,29.76,2.14,4.29h-10.99Zm-5.9-30.56l-.27-1.61-.27,1.61-3.48,14.48,.54,.54h6.43l.54-.54-3.49-14.48Z"/>
      <path class="cls-1" d="M100.32,51.48h-22.25l-2.95-5.9,17.16-24.66-.54-.54h-10.72l-4.83,1.61,2.68-8.04h20.91l2.68,5.36-17.05,24.5,.7,.7h11.53l5.63-1.88-2.95,8.85Z"/>
      <path class="cls-1" d="M44.38,74.06v23.06l.54,3.22-6.97,6.97h-13.94l-6.97-6.97,.54-3.22v-23.06l-1.07-4.29h10.46l-1.07,4.29v23.06l1.07,2.14,2.14,1.07h4.02l2.14-1.07,1.07-2.14v-23.06l-1.07-4.29h10.19l-1.07,4.29Z"/>
      <path class="cls-1" d="M103.4,74.06l-10.19,33.24h-6.97l-10.19-33.24-2.14-4.29h10.99l-.54,4.29,5.36,19.3,.27,2.14,.27-2.14,5.36-19.3-.54-4.29h10.46l-2.14,4.29Z"/>
    </g>
    <g>
      <rect class="cls-1" x="58.33" y="2.94" width="5.95" height="114.97"/>
      <rect class="cls-1" x="3.82" y="57.42" width="114.97" height="5.95"/>
      <path class="cls-1" d="M121.7,60.4h-5.95V14.42c-4.1-1.08-7.32-4.35-8.33-8.47H61.28V0h51.75V3.16c0,3.14,2.56,5.7,5.7,5.7h2.98V60.4Z"/>
      <path class="cls-1" d="M112.84,120.8H61.3v-5.95h45.98c1.08-4.1,4.35-7.32,8.47-8.33V60.38h5.95v51.75h-3.16c-3.14,0-5.7,2.56-5.7,5.7v2.98Z"/>
      <path class="cls-1" d="M61.33,120.8H9.57v-3.16c0-3.14-2.56-5.7-5.7-5.7H.9V60.4H6.85v45.98c4.1,1.08,7.32,4.35,8.33,8.47H61.33v5.95Z"/>
      <path class="cls-1" d="M6.85,60.42H.9V8.67h3.16c3.14,0,5.7-2.56,5.7-5.7V0H61.3V5.95H15.33c-1.08,4.1-4.35,7.32-8.47,8.33V60.42Z"/>
    </g>
    <g>
      <path class="cls-1" d="M10.58,147.19l.52-1.66v-6.43l.1-.83-.31,.83-3.32,8.09h-.1l-3.32-8.09-.31-.83,.1,.83v6.43l.52,1.66H0l.52-1.66v-11.2l-.52-1.66H5.18l2.38,5.85,.1,.48,.1-.48,2.38-5.85h5.29l-.52,1.66v11.2l.52,1.66h-4.87Z"/>
      <path class="cls-1" d="M20.85,147.19l.52-1.66v-11.2l-.52-1.66h5.08l-.52,1.66v11.2l.52,1.66h-5.08Z"/>
      <path class="cls-1" d="M43.08,134.33v12.86h-2.8l-4.56-7.67-.42-1.04,.1,1.04v6.01l.52,1.66h-4.56l.52-1.66v-11.2l-.62-1.66h4.46l3.63,6.12,.42,1.04-.1-1.04v-4.46l-.52-1.66h4.46l-.52,1.66Z"/>
      <path class="cls-1" d="M58.01,147.19h-9.02l.52-1.66v-11.2l-.52-1.66h8.71l1.31,3.94-1.82-.62h-3.57l-.17,.21v1.45l.21,.21h1.35l1.56-.52v4.36l-1.56-.52h-1.35l-.21,.21v1.97l.31,.31h3.48l2.18-.73-1.41,4.25Z"/>
      <path class="cls-1" d="M71.69,147.19l-1.56-4.67-.41-.21h-1.14l-.21,.21v3.01l.52,1.66h-4.98l.52-1.66v-11.2l-.52-1.66h9.02l2.7,2.7v4.04l-1.87,1.87,1.45,3.94,1.14,1.97h-4.67Zm-.1-9.95l-.41-.83-.83-.41h-1.76l-.21,.21v2.59l.21,.21h1.76l.83-.41,.41-.83v-.52Z"/>
      <path class="cls-1" d="M89.3,147.19l.21-1.66-.31-1.24-.21-.21h-3.42l-.21,.21-.31,1.24,.21,1.66h-4.77l.83-1.66,2.9-11.51-.31-1.35h7.05l-.31,1.35,2.9,11.51,.83,1.66h-5.08Zm-1.93-10.89l-.1-.73-.1,.73-1.04,4.46,.21,.21h1.87l.21-.21-1.04-4.46Z"/>
      <path class="cls-1" d="M107.42,147.19h-8.5l.52-1.66v-11.2l-.52-1.66h5.18l-.62,1.87v8.81l.31,.31h2.9l2.14-.73-1.41,4.25Z"/>
      <path class="cls-1" d="M121.48,135.99h-2.95l-.62,.31-.31,.62v.42l.42,.41,3.21,.73,1.97,1.97v4.04l-2.7,2.7h-6.12l-1.41-4.25,2.18,.73h2.97l.62-.31,.31-.62v-.83l-.52-.52-3.21-.73-1.87-1.87v-3.42l2.7-2.7h5.81l1.31,3.94-1.78-.62Z"/>
    </g>
  </g>
</svg>